HIERARCHY
ROOT Hips
{
	OFFSET -0.001795 -0.223333 0.028219
	CHANNELS 6 Xposition Yposition Zposition Zrotation Yrotation Xrotation 
	JOINT LeftUpLeg
	{
		OFFSET 0.069520 -0.091406 -0.006815
		CHANNELS 3 Zrotation Yrotation Xrotation
		JOINT LeftLeg
		{
			OFFSET 0.034277 -0.375199 -0.004496
			CHANNELS 3 Zrotation Yrotation Xrotation
			JOINT LeftFoot
			{
				OFFSET -0.013596 -0.397961 -0.043693
				CHANNELS 3 Zrotation Yrotation Xrotation
				JOINT LeftToe
				{
					OFFSET 0.026358 -0.055791 0.119288
					CHANNELS 3 Zrotation Yrotation Xrotation
					End Site
					{
						OFFSET 0.000000 0.000000 0.000000
					}
				}
			}
		}
	}
	JOINT RightUpLeg
	{
		OFFSET -0.067670 -0.090522 -0.004320
		CHANNELS 3 Zrotation Yrotation Xrotation
		JOINT RightLeg
		{
			OFFSET -0.038290 -0.382569 -0.008850
			CHANNELS 3 Zrotation Yrotation Xrotation
			JOINT RightFoot
			{
				OFFSET 0.015774 -0.398415 -0.042312
				CHANNELS 3 Zrotation Yrotation Xrotation
				JOINT RightToe
				{
					OFFSET -0.025372 -0.048144 0.123348
					CHANNELS 3 Zrotation Yrotation Xrotation
					End Site
					{
						OFFSET 0.000000 0.000000 0.000000
					}
				}
			}
		}
	}
	JOINT Spine
	{
		OFFSET -0.002533 0.108963 -0.026696
		CHANNELS 3 Zrotation Yrotation Xrotation
		JOINT Spine1
		{
			OFFSET 0.005487 0.135180 0.001092
			CHANNELS 3 Zrotation Yrotation Xrotation
			JOINT Spine2
			{
				OFFSET 0.001457 0.052922 0.025425
				CHANNELS 3 Zrotation Yrotation Xrotation
				JOINT Neck
				{
					OFFSET -0.002778 0.213870 -0.042857
					CHANNELS 3 Zrotation Yrotation Xrotation
					JOINT Head
					{
						OFFSET 0.005152 0.064970 0.051349
						CHANNELS 3 Zrotation Yrotation Xrotation
						End Site
						{
							OFFSET 0.000000 0.000000 0.000000
						}
					}
				}
				JOINT LeftShoulder
				{
					OFFSET 0.078845 0.121749 -0.034090
					CHANNELS 3 Zrotation Yrotation Xrotation
					JOINT LeftArm
					{
						OFFSET 0.090977 0.030469 -0.008868
						CHANNELS 3 Zrotation Yrotation Xrotation
						JOINT LeftForeArm
						{
							OFFSET 0.259612 -0.012772 -0.027456
							CHANNELS 3 Zrotation Yrotation Xrotation
							JOINT LeftHand
							{
								OFFSET 0.249234 0.008986 -0.001171
								CHANNELS 3 Zrotation Yrotation Xrotation
								End Site
								{
									OFFSET 0.000000 0.000000 0.000000
								}
							}
						}
					}
				}
				JOINT RightShoulder
				{
					OFFSET -0.081759 0.118833 -0.038615
					CHANNELS 3 Zrotation Yrotation Xrotation
					JOINT RightArm
					{
						OFFSET -0.096012 0.032551 -0.009143
						CHANNELS 3 Zrotation Yrotation Xrotation
						JOINT RightForeArm
						{
							OFFSET -0.253742 -0.013329 -0.021401
							CHANNELS 3 Zrotation Yrotation Xrotation
							JOINT RightHand
							{
								OFFSET -0.255298 0.007772 -0.005559
								CHANNELS 3 Zrotation Yrotation Xrotation
								End Site
								{
									OFFSET 0.000000 0.000000 0.000000
								}
							}
						}
					}
				}
			}
		}
	}
}
MOTION
Frames: 7
Frame Time: 0.050000
0.531603 0.934774 2.205440 0.053873 12.672517 0.744117 3.200876 -3.187109 -31.201850 -5.872085 -0.948768 41.161004 7.950190 17.611750 6.475248 0.000000 0.000000 0.000000 6.297690 1.479725 -10.449424 -1.279885 0.344713 28.122926 -0.465876 -2.102529 3.067857 0.000000 0.000000 0.000000 -4.202822 -1.244334 30.960514 9.595146 -0.855671 -31.164716 3.722105 3.787755 32.645054 -1.429946 4.162658 -23.135463 0.000000 0.000000 0.000000 -29.615786 4.386151 -9.105443 -36.526587 4.294714 -6.519813 -119.198602 -43.281886 69.317419 0.000000 0.000000 0.000000 12.573039 6.983189 4.750870 42.933132 18.306987 -1.143473 144.170834 65.840483 143.725926 0.000000 0.000000 0.000000 
0.550993 0.959167 2.281622 -0.032249 11.618250 2.053884 1.225340 -3.398420 -30.071907 -2.582000 -0.712695 22.510251 5.764664 13.678907 5.426023 0.000000 0.000000 0.000000 6.131447 0.509285 -3.818024 -1.794720 0.703080 23.331466 1.114144 0.010195 7.854834 0.000000 0.000000 0.000000 -5.349922 -0.697865 28.784884 9.279319 -0.868215 -30.549628 4.730066 5.681804 30.920324 0.474168 3.064101 -21.797049 0.000000 0.000000 0.000000 -26.851080 6.305059 -10.141001 -36.405903 8.433892 -7.364956 -123.277907 -39.086545 66.391718 0.000000 0.000000 0.000000 7.775395 6.651705 3.859802 47.162982 20.088468 0.676104 143.740168 62.091985 141.940465 0.000000 0.000000 0.000000 
0.570187 0.975222 2.362375 -0.445695 10.879815 2.210155 0.515391 -2.850985 -25.718742 -2.017655 0.084908 3.668343 3.187785 10.963098 11.369452 0.000000 0.000000 0.000000 5.595950 -0.687271 3.729928 -1.642609 0.720429 20.061176 2.963594 2.682521 11.060588 0.000000 0.000000 0.000000 -5.916955 -0.388437 26.517228 8.759673 -0.796418 -30.393293 5.500994 5.399739 30.767013 -0.826601 3.866696 -22.716062 0.000000 0.000000 0.000000 -26.276897 7.794402 -10.685206 -35.673016 10.572906 -7.812529 -125.068451 -35.816666 63.320114 0.000000 0.000000 0.000000 6.518401 5.868049 3.234000 47.304748 21.431439 1.399016 138.771377 58.776894 131.032699 0.000000 0.000000 0.000000 
0.589320 0.978471 2.447884 -0.685231 9.266725 1.841336 1.518342 -2.228426 -22.922836 -3.661927 0.324581 -1.202435 2.669543 11.760899 18.358785 0.000000 0.000000 0.000000 4.139457 -1.359400 8.509031 -0.859532 0.587428 22.062990 4.730942 3.923635 15.745383 0.000000 0.000000 0.000000 -6.501207 -0.034096 22.685912 8.889527 -0.952913 -28.929364 4.429546 5.956031 32.075048 0.179269 3.362937 -24.516527 0.000000 0.000000 0.000000 -25.600713 10.712045 -12.166138 -35.489891 9.605497 -7.651352 -125.236998 -34.524090 61.371874 0.000000 0.000000 0.000000 6.191255 5.204430 2.890913 47.146132 22.164761 1.558124 135.743428 57.460866 125.280383 0.000000 0.000000 0.000000 
0.609064 0.965531 2.536326 -0.143762 9.445813 -0.700648 -0.810662 -2.116822 -19.031639 -2.713533 0.186186 3.253230 1.802615 11.296875 21.378818 0.000000 0.000000 0.000000 3.181568 -1.787397 11.901291 -0.954792 0.603680 28.242267 5.970663 3.835084 20.954953 0.000000 0.000000 0.000000 -9.375946 0.452475 21.808613 9.589142 -1.289669 -27.593918 5.221058 5.165495 32.222911 -0.590482 3.746034 -24.898630 0.000000 0.000000 0.000000 -25.819181 10.567668 -11.883303 -34.755232 9.576804 -7.481896 -123.251744 -37.996592 65.018370 0.000000 0.000000 0.000000 3.847853 4.245244 2.060193 51.473799 20.477471 1.603748 131.576172 53.862134 115.517553 0.000000 0.000000 0.000000 
0.629173 0.942138 2.623854 0.075674 10.289876 -2.633873 -2.854657 -2.065604 -16.485995 -1.323183 -0.352902 11.927038 2.430291 10.610640 14.937310 0.000000 0.000000 0.000000 2.805795 -1.332164 9.280538 -2.726001 1.098308 41.864613 6.404634 5.517513 18.494780 0.000000 0.000000 0.000000 -10.714973 0.599517 22.659365 10.713693 -1.510615 -28.150581 2.866076 2.575471 32.921306 -2.107827 4.364927 -27.867993 0.000000 0.000000 0.000000 -28.028912 11.868330 -12.581709 -32.715338 6.365569 -6.423841 -119.691730 -40.318386 65.792290 0.000000 0.000000 0.000000 6.135885 4.678754 2.430037 51.261671 18.151398 -0.025364 127.542026 52.146287 106.088018 0.000000 0.000000 0.000000 
0.648734 0.920188 2.706994 0.321164 12.732327 -5.243315 -3.715263 -1.671951 -12.937834 -1.788521 -0.904422 20.561704 4.245937 10.782498 5.653664 0.000000 0.000000 0.000000 2.570332 -0.351699 2.699818 -3.998138 0.631535 57.249369 4.954042 5.438694 12.527019 0.000000 0.000000 0.000000 -10.457319 0.331673 24.092729 10.284542 -1.586844 -26.506148 0.495113 -0.637227 33.063208 -2.249838 4.113001 -29.707849 0.000000 0.000000 0.000000 -29.626712 9.272436 -10.507902 -34.038640 0.034548 -5.375855 -119.208719 -46.136793 74.966944 0.000000 0.000000 0.000000 9.296068 3.336919 2.018426 52.250204 12.550394 -2.819998 123.136868 52.692600 99.346772 0.000000 0.000000 0.000000 
